<mxfile host="65bd71144e">
    <diagram id="17ebkkFCQdh5CJliMJRq" name="Page-1">
        <mxGraphModel dx="1700" dy="1428" grid="1" gridSize="10" guides="1" tooltips="1" connect="1" arrows="1" fold="1" page="1" pageScale="1" pageWidth="850" pageHeight="1100" math="0" shadow="0">
            <root>
                <mxCell id="0"/>
                <mxCell id="1" parent="0"/>
                <mxCell id="5" value="Επιλογή &quot;Κουπόνια&quot;" style="edgeStyle=none;html=1;entryX=-0.021;entryY=0.508;entryDx=0;entryDy=0;entryPerimeter=0;" edge="1" parent="1" source="3" target="4">
                    <mxGeometry relative="1" as="geometry"/>
                </mxCell>
                <mxCell id="21" value="Επιλογή προσφοράς" style="edgeStyle=none;html=1;entryX=-0.006;entryY=0.541;entryDx=0;entryDy=0;entryPerimeter=0;endArrow=classic;endFill=1;exitX=1;exitY=0.3333333333333333;exitDx=0;exitDy=0;exitPerimeter=0;" edge="1" parent="1" source="3" target="9">
                    <mxGeometry relative="1" as="geometry">
                        <mxPoint x="110" y="405" as="sourcePoint"/>
                    </mxGeometry>
                </mxCell>
                <mxCell id="26" value="Κλείσιμο" style="edgeStyle=none;html=1;exitX=1;exitY=0.3333333333333333;exitDx=0;exitDy=0;exitPerimeter=0;endArrow=classic;endFill=1;fontSize=12;fillColor=none;strokeColor=#b85450;strokeWidth=2;" edge="1" parent="1" source="3" target="24">
                    <mxGeometry x="-0.4833" y="6" relative="1" as="geometry">
                        <Array as="points">
                            <mxPoint x="150" y="525"/>
                        </Array>
                        <mxPoint as="offset"/>
                    </mxGeometry>
                </mxCell>
                <mxCell id="86" style="edgeStyle=none;html=1;exitX=1;exitY=0.3333333333333333;exitDx=0;exitDy=0;exitPerimeter=0;entryX=0.014;entryY=0.466;entryDx=0;entryDy=0;entryPerimeter=0;endArrow=classic;endFill=1;" edge="1" parent="1" source="3" target="84">
                    <mxGeometry relative="1" as="geometry"/>
                </mxCell>
                <mxCell id="3" value="Πελάτης" style="shape=umlActor;verticalLabelPosition=bottom;verticalAlign=top;html=1;" vertex="1" parent="1">
                    <mxGeometry x="80" y="310" width="30" height="60" as="geometry"/>
                </mxCell>
                <mxCell id="7" value="" style="edgeStyle=none;html=1;" edge="1" parent="1" source="4" target="6">
                    <mxGeometry relative="1" as="geometry"/>
                </mxCell>
                <mxCell id="4" value="Αρχική Οθόνη" style="shape=umlBoundary;whiteSpace=wrap;html=1;" vertex="1" parent="1">
                    <mxGeometry x="320" y="175" width="90" height="70" as="geometry"/>
                </mxCell>
                <mxCell id="10" value="" style="edgeStyle=none;html=1;exitX=0.054;exitY=0.833;exitDx=0;exitDy=0;exitPerimeter=0;entryX=0.898;entryY=0.085;entryDx=0;entryDy=0;entryPerimeter=0;" edge="1" parent="1" source="6" target="9">
                    <mxGeometry relative="1" as="geometry"/>
                </mxCell>
                <mxCell id="6" value="Εμφάνισε" style="ellipse;shape=umlControl;whiteSpace=wrap;html=1;" vertex="1" parent="1">
                    <mxGeometry x="490" y="170" width="70" height="80" as="geometry"/>
                </mxCell>
                <mxCell id="12" value="" style="edgeStyle=none;html=1;" edge="1" parent="1" source="9" target="11">
                    <mxGeometry relative="1" as="geometry"/>
                </mxCell>
                <mxCell id="80" value="" style="edgeStyle=none;html=1;endArrow=classic;endFill=1;exitX=0.904;exitY=0.838;exitDx=0;exitDy=0;exitPerimeter=0;" edge="1" parent="1" source="9" target="79">
                    <mxGeometry relative="1" as="geometry"/>
                </mxCell>
                <mxCell id="9" value="Οθόνη Προσφορών" style="shape=umlBoundary;whiteSpace=wrap;html=1;" vertex="1" parent="1">
                    <mxGeometry x="320" y="290" width="90" height="70" as="geometry"/>
                </mxCell>
                <mxCell id="14" value="" style="edgeStyle=none;html=1;endArrow=none;endFill=0;" edge="1" parent="1" source="11" target="13">
                    <mxGeometry relative="1" as="geometry"/>
                </mxCell>
                <mxCell id="16" value="Βρέθηκαν προσφορές" style="edgeStyle=none;html=1;endArrow=classic;endFill=1;" edge="1" parent="1" source="11" target="15">
                    <mxGeometry relative="1" as="geometry"/>
                </mxCell>
                <mxCell id="23" value="Δεν βρέθηκαν προσφορές" style="edgeStyle=none;html=1;endArrow=classic;endFill=1;fontSize=12;fillColor=none;strokeColor=#b85450;strokeWidth=2;" edge="1" parent="1" source="11" target="22">
                    <mxGeometry x="0.217" y="4" relative="1" as="geometry">
                        <mxPoint x="-1" as="offset"/>
                    </mxGeometry>
                </mxCell>
                <mxCell id="11" value="Ανάκτηση Προσφορών" style="ellipse;shape=umlControl;whiteSpace=wrap;html=1;" vertex="1" parent="1">
                    <mxGeometry x="490" y="290" width="70" height="80" as="geometry"/>
                </mxCell>
                <mxCell id="13" value="Βάση Δεδομένων" style="ellipse;shape=umlEntity;whiteSpace=wrap;html=1;" vertex="1" parent="1">
                    <mxGeometry x="650" y="295.0000000000001" width="70" height="70" as="geometry"/>
                </mxCell>
                <mxCell id="18" value="" style="edgeStyle=none;html=1;endArrow=classic;endFill=1;entryX=-0.027;entryY=0.491;entryDx=0;entryDy=0;entryPerimeter=0;" edge="1" parent="1" source="15" target="19">
                    <mxGeometry relative="1" as="geometry">
                        <mxPoint x="780" y="285" as="targetPoint"/>
                    </mxGeometry>
                </mxCell>
                <mxCell id="15" value="Εμφάνισε" style="ellipse;shape=umlControl;whiteSpace=wrap;html=1;" vertex="1" parent="1">
                    <mxGeometry x="650" y="190" width="70" height="80" as="geometry"/>
                </mxCell>
                <mxCell id="19" value="Συλλογή από προσφορές" style="shape=umlBoundary;whiteSpace=wrap;html=1;" vertex="1" parent="1">
                    <mxGeometry x="760" y="195" width="90" height="70" as="geometry"/>
                </mxCell>
                <mxCell id="25" value="" style="edgeStyle=none;html=1;endArrow=classic;endFill=1;fontSize=12;fillColor=none;strokeColor=#b85450;strokeWidth=2;" edge="1" parent="1" source="22" target="24">
                    <mxGeometry relative="1" as="geometry"/>
                </mxCell>
                <mxCell id="22" value="Εμφάνισε" style="ellipse;shape=umlControl;whiteSpace=wrap;html=1;fillColor=none;strokeColor=#b85450;strokeWidth=2;" vertex="1" parent="1">
                    <mxGeometry x="650" y="485" width="70" height="80" as="geometry"/>
                </mxCell>
                <mxCell id="29" value="" style="edgeStyle=none;html=1;endArrow=classic;endFill=1;fontSize=12;fillColor=none;strokeColor=#b85450;strokeWidth=2;" edge="1" parent="1" source="24" target="28">
                    <mxGeometry relative="1" as="geometry"/>
                </mxCell>
                <mxCell id="24" value="Μήνυμα σφάλματος" style="shape=umlBoundary;whiteSpace=wrap;html=1;fillColor=none;strokeColor=#b85450;strokeWidth=2;" vertex="1" parent="1">
                    <mxGeometry x="480" y="490" width="90" height="70" as="geometry"/>
                </mxCell>
                <mxCell id="28" value="Κλείσιμο οθόνης" style="ellipse;shape=umlControl;whiteSpace=wrap;html=1;fillColor=none;strokeColor=#b85450;strokeWidth=2;" vertex="1" parent="1">
                    <mxGeometry x="650" y="590" width="70" height="80" as="geometry"/>
                </mxCell>
                <mxCell id="35" value="Όχι" style="edgeStyle=none;html=1;endArrow=classic;endFill=1;fontSize=12;fillColor=none;strokeColor=#b85450;strokeWidth=2;" edge="1" parent="1" source="32" target="34">
                    <mxGeometry relative="1" as="geometry"/>
                </mxCell>
                <mxCell id="39" value="Ναι" style="edgeStyle=none;html=1;endArrow=classic;endFill=1;" edge="1" parent="1" source="32" target="38">
                    <mxGeometry relative="1" as="geometry"/>
                </mxCell>
                <mxCell id="89" style="edgeStyle=none;html=1;entryX=0.5;entryY=0;entryDx=0;entryDy=0;endArrow=none;endFill=0;" edge="1" parent="1" source="32" target="88">
                    <mxGeometry relative="1" as="geometry"/>
                </mxCell>
                <mxCell id="32" value="Επαρκείς πόντοι;" style="ellipse;shape=umlControl;whiteSpace=wrap;html=1;" vertex="1" parent="1">
                    <mxGeometry x="330" y="570" width="70" height="80" as="geometry"/>
                </mxCell>
                <mxCell id="37" value="" style="edgeStyle=none;html=1;endArrow=classic;endFill=1;fontSize=12;fillColor=none;strokeColor=#b85450;strokeWidth=2;" edge="1" parent="1" source="34" target="36">
                    <mxGeometry relative="1" as="geometry"/>
                </mxCell>
                <mxCell id="34" value="Εμφάνισε" style="ellipse;shape=umlControl;whiteSpace=wrap;html=1;fillColor=none;strokeColor=#b85450;strokeWidth=2;" vertex="1" parent="1">
                    <mxGeometry x="210" y="570" width="70" height="80" as="geometry"/>
                </mxCell>
                <mxCell id="36" value="Μήνυμα σφάλματος" style="shape=umlBoundary;whiteSpace=wrap;html=1;fillColor=none;strokeColor=#b85450;strokeWidth=2;" vertex="1" parent="1">
                    <mxGeometry x="80" y="575" width="90" height="70" as="geometry"/>
                </mxCell>
                <mxCell id="43" value="Ναι" style="edgeStyle=none;html=1;endArrow=classic;endFill=1;fontSize=12;fillColor=none;strokeColor=#b85450;strokeWidth=2;" edge="1" parent="1" source="38" target="40">
                    <mxGeometry relative="1" as="geometry"/>
                </mxCell>
                <mxCell id="45" value="Όχι" style="edgeStyle=none;html=1;endArrow=classic;endFill=1;" edge="1" parent="1" source="38" target="44">
                    <mxGeometry relative="1" as="geometry"/>
                </mxCell>
                <mxCell id="50" value="" style="edgeStyle=none;html=1;endArrow=none;endFill=0;" edge="1" parent="1" source="38" target="48">
                    <mxGeometry relative="1" as="geometry"/>
                </mxCell>
                <mxCell id="38" value="Έχει λήξει η προσφορά;" style="ellipse;shape=umlControl;whiteSpace=wrap;html=1;" vertex="1" parent="1">
                    <mxGeometry x="330" y="720" width="70" height="80" as="geometry"/>
                </mxCell>
                <mxCell id="42" value="" style="edgeStyle=none;html=1;endArrow=classic;endFill=1;fontSize=12;fillColor=none;strokeColor=#b85450;strokeWidth=2;" edge="1" parent="1" source="40" target="41">
                    <mxGeometry relative="1" as="geometry"/>
                </mxCell>
                <mxCell id="40" value="Εμφάνισε" style="ellipse;shape=umlControl;whiteSpace=wrap;html=1;fillColor=none;strokeColor=#b85450;strokeWidth=2;" vertex="1" parent="1">
                    <mxGeometry x="210" y="720" width="70" height="80" as="geometry"/>
                </mxCell>
                <mxCell id="41" value="Μήνυμα σφάλματος" style="shape=umlBoundary;whiteSpace=wrap;html=1;fillColor=none;strokeColor=#b85450;strokeWidth=2;" vertex="1" parent="1">
                    <mxGeometry x="80" y="725" width="90" height="70" as="geometry"/>
                </mxCell>
                <mxCell id="47" value="Ναι" style="edgeStyle=none;html=1;endArrow=classic;endFill=1;fontSize=12;fillColor=none;strokeColor=#b85450;strokeWidth=2;" edge="1" parent="1" source="44" target="46">
                    <mxGeometry x="-0.28" relative="1" as="geometry">
                        <Array as="points">
                            <mxPoint x="520" y="890"/>
                        </Array>
                        <mxPoint as="offset"/>
                    </mxGeometry>
                </mxCell>
                <mxCell id="51" style="edgeStyle=none;html=1;entryX=0;entryY=1;entryDx=0;entryDy=0;endArrow=none;endFill=0;" edge="1" parent="1" source="44" target="48">
                    <mxGeometry relative="1" as="geometry"/>
                </mxCell>
                <mxCell id="63" value="Όχι" style="edgeStyle=none;html=1;endArrow=classic;endFill=1;" edge="1" parent="1" source="44" target="59">
                    <mxGeometry relative="1" as="geometry"/>
                </mxCell>
                <mxCell id="44" value="Έχει όριο εξαργύρωσης;" style="ellipse;shape=umlControl;whiteSpace=wrap;html=1;" vertex="1" parent="1">
                    <mxGeometry x="330" y="850" width="70" height="80" as="geometry"/>
                </mxCell>
                <mxCell id="60" style="edgeStyle=none;html=1;entryX=0.5;entryY=1;entryDx=0;entryDy=0;endArrow=none;endFill=0;fontSize=12;fillColor=none;strokeColor=#b85450;strokeWidth=2;" edge="1" parent="1" source="46" target="13">
                    <mxGeometry relative="1" as="geometry">
                        <Array as="points">
                            <mxPoint x="770" y="840"/>
                            <mxPoint x="770" y="660"/>
                            <mxPoint x="770" y="480"/>
                        </Array>
                    </mxGeometry>
                </mxCell>
                <mxCell id="61" value="Εξαντλήθηκε" style="edgeStyle=none;html=1;endArrow=classic;endFill=1;fontSize=12;fillColor=none;strokeColor=#b85450;strokeWidth=2;" edge="1" parent="1" source="46" target="52">
                    <mxGeometry relative="1" as="geometry"/>
                </mxCell>
                <mxCell id="62" value="Δεν εξαντλήθηκε" style="edgeStyle=none;html=1;endArrow=classic;endFill=1;fontSize=12;fillColor=none;strokeColor=#b85450;strokeWidth=2;entryX=0.949;entryY=0.342;entryDx=0;entryDy=0;entryPerimeter=0;" edge="1" parent="1" source="46" target="76">
                    <mxGeometry relative="1" as="geometry">
                        <mxPoint x="550" y="950" as="targetPoint"/>
                    </mxGeometry>
                </mxCell>
                <mxCell id="46" value="Έλεγχος στη βάση" style="ellipse;shape=umlControl;whiteSpace=wrap;html=1;fillColor=none;strokeColor=#b85450;strokeWidth=2;" vertex="1" parent="1">
                    <mxGeometry x="650" y="850" width="70" height="80" as="geometry"/>
                </mxCell>
                <mxCell id="48" value="Coupon" style="ellipse;shape=umlEntity;whiteSpace=wrap;html=1;" vertex="1" parent="1">
                    <mxGeometry x="485" y="720" width="80" height="75" as="geometry"/>
                </mxCell>
                <mxCell id="55" value="" style="edgeStyle=none;html=1;endArrow=classic;endFill=1;entryX=0.886;entryY=0.856;entryDx=0;entryDy=0;entryPerimeter=0;fontSize=12;fillColor=none;strokeColor=#b85450;strokeWidth=2;" edge="1" parent="1" source="52" target="54">
                    <mxGeometry relative="1" as="geometry"/>
                </mxCell>
                <mxCell id="52" value="Εμφάνισε" style="ellipse;shape=umlControl;whiteSpace=wrap;html=1;fillColor=none;strokeColor=#b85450;strokeWidth=2;" vertex="1" parent="1">
                    <mxGeometry x="650" y="710" width="70" height="80" as="geometry"/>
                </mxCell>
                <mxCell id="74" style="edgeStyle=none;html=1;entryX=0.777;entryY=0.939;entryDx=0;entryDy=0;entryPerimeter=0;endArrow=classic;endFill=1;fontSize=12;fillColor=none;strokeColor=#b85450;strokeWidth=2;exitX=-0.017;exitY=0.504;exitDx=0;exitDy=0;exitPerimeter=0;" edge="1" parent="1" source="54" target="73">
                    <mxGeometry relative="1" as="geometry">
                        <mxPoint x="528" y="659" as="sourcePoint"/>
                    </mxGeometry>
                </mxCell>
                <mxCell id="54" value="Μήνυμα σφάλματος" style="shape=umlBoundary;whiteSpace=wrap;html=1;fillColor=none;strokeColor=#b85450;strokeWidth=2;" vertex="1" parent="1">
                    <mxGeometry x="530" y="640" width="90" height="70" as="geometry"/>
                </mxCell>
                <mxCell id="65" value="" style="edgeStyle=none;html=1;endArrow=classic;endFill=1;" edge="1" parent="1" source="59" target="64">
                    <mxGeometry relative="1" as="geometry"/>
                </mxCell>
                <mxCell id="59" value="Ενημέρωση&lt;br&gt;βασης" style="ellipse;shape=umlControl;whiteSpace=wrap;html=1;" vertex="1" parent="1">
                    <mxGeometry x="330" y="980" width="70" height="80" as="geometry"/>
                </mxCell>
                <mxCell id="67" value="" style="edgeStyle=none;html=1;endArrow=classic;endFill=1;" edge="1" parent="1" source="64" target="66">
                    <mxGeometry relative="1" as="geometry"/>
                </mxCell>
                <mxCell id="71" value="" style="edgeStyle=none;html=1;endArrow=classic;endFill=1;" edge="1" parent="1" source="64" target="70">
                    <mxGeometry relative="1" as="geometry"/>
                </mxCell>
                <mxCell id="64" value="Αφαίρεση πόντων" style="ellipse;shape=umlControl;whiteSpace=wrap;html=1;" vertex="1" parent="1">
                    <mxGeometry x="210" y="980" width="70" height="80" as="geometry"/>
                </mxCell>
                <mxCell id="69" value="" style="edgeStyle=none;html=1;endArrow=classic;endFill=1;" edge="1" parent="1" source="66" target="68">
                    <mxGeometry relative="1" as="geometry"/>
                </mxCell>
                <mxCell id="66" value="Προσθήκη χρημάτων" style="ellipse;shape=umlControl;whiteSpace=wrap;html=1;" vertex="1" parent="1">
                    <mxGeometry x="210" y="850" width="70" height="80" as="geometry"/>
                </mxCell>
                <mxCell id="68" value="Wallet" style="ellipse;shape=umlEntity;whiteSpace=wrap;html=1;" vertex="1" parent="1">
                    <mxGeometry x="80" y="852.5" width="80" height="75" as="geometry"/>
                </mxCell>
                <mxCell id="70" value="Customer" style="ellipse;shape=umlEntity;whiteSpace=wrap;html=1;" vertex="1" parent="1">
                    <mxGeometry x="80" y="980" width="80" height="75" as="geometry"/>
                </mxCell>
                <mxCell id="73" value="Αφαίρεση προσφοράς" style="ellipse;shape=umlControl;whiteSpace=wrap;html=1;fillColor=none;strokeColor=#b85450;strokeWidth=2;" vertex="1" parent="1">
                    <mxGeometry x="425" y="560" width="70" height="80" as="geometry"/>
                </mxCell>
                <mxCell id="77" style="edgeStyle=none;html=1;endArrow=classic;endFill=1;fontSize=12;strokeColor=#b85450;fillColor=none;strokeWidth=2;" edge="1" parent="1" source="76" target="59">
                    <mxGeometry relative="1" as="geometry"/>
                </mxCell>
                <mxCell id="78" style="edgeStyle=none;html=1;entryX=0.5;entryY=1;entryDx=0;entryDy=0;endArrow=classic;endFill=1;fontSize=12;strokeColor=#b85450;fillColor=none;strokeWidth=2;" edge="1" parent="1" source="76" target="48">
                    <mxGeometry relative="1" as="geometry"/>
                </mxCell>
                <mxCell id="76" value="Ενημέρωση αποθέματος" style="ellipse;shape=umlControl;whiteSpace=wrap;html=1;fillColor=none;strokeColor=#b85450;strokeWidth=2;" vertex="1" parent="1">
                    <mxGeometry x="490" y="927.5" width="70" height="80" as="geometry"/>
                </mxCell>
                <mxCell id="83" value="Όχι" style="edgeStyle=none;html=1;endArrow=classic;endFill=1;fontSize=12;fillColor=none;strokeColor=#b85450;strokeWidth=2;exitX=-0.004;exitY=0.521;exitDx=0;exitDy=0;exitPerimeter=0;" edge="1" parent="1" source="84" target="82">
                    <mxGeometry relative="1" as="geometry">
                        <mxPoint x="290" y="470" as="sourcePoint"/>
                    </mxGeometry>
                </mxCell>
                <mxCell id="85" value="" style="edgeStyle=none;html=1;endArrow=classic;endFill=1;" edge="1" parent="1" source="79" target="84">
                    <mxGeometry relative="1" as="geometry"/>
                </mxCell>
                <mxCell id="79" value="Εμφάνισε" style="ellipse;shape=umlControl;whiteSpace=wrap;html=1;" vertex="1" parent="1">
                    <mxGeometry x="470" y="385" width="70" height="80" as="geometry"/>
                </mxCell>
                <mxCell id="82" value="Κλείσιμο&lt;br&gt;μηνύματος" style="ellipse;shape=umlControl;whiteSpace=wrap;html=1;fillColor=none;strokeColor=#b85450;strokeWidth=2;" vertex="1" parent="1">
                    <mxGeometry x="170" y="425" width="70" height="80" as="geometry"/>
                </mxCell>
                <mxCell id="87" value="Ναι" style="edgeStyle=none;html=1;endArrow=classic;endFill=1;" edge="1" parent="1" source="84" target="32">
                    <mxGeometry relative="1" as="geometry"/>
                </mxCell>
                <mxCell id="84" value="Επιλογή &quot;Συνέχεια με εξαργύρωση&quot;" style="shape=umlBoundary;whiteSpace=wrap;html=1;" vertex="1" parent="1">
                    <mxGeometry x="320" y="390" width="90" height="70" as="geometry"/>
                </mxCell>
                <mxCell id="88" value="Customer" style="ellipse;shape=umlEntity;whiteSpace=wrap;html=1;" vertex="1" parent="1">
                    <mxGeometry x="420" y="670" width="70" height="65" as="geometry"/>
                </mxCell>
            </root>
        </mxGraphModel>
    </diagram>
</mxfile>